<svg id="visual" viewBox="0 0 900 600" width="900" height="600" xmlns="http://www.w3.org/2000/svg" xmlns:xlink="http://www.w3.org/1999/xlink" version="1.1"><rect x="0" y="0" width="900" height="600" fill="#002233"></rect><path d="M0 508L21.5 502C43 496 86 484 128.8 483.8C171.7 483.7 214.3 495.3 257.2 491C300 486.7 343 466.3 385.8 465C428.7 463.7 471.3 481.3 514.2 481C557 480.7 600 462.3 642.8 465.7C685.7 469 728.3 494 771.2 492.7C814 491.3 857 463.7 878.5 449.8L900 436L900 601L878.5 601C857 601 814 601 771.2 601C728.3 601 685.7 601 642.8 601C600 601 557 601 514.2 601C471.3 601 428.7 601 385.8 601C343 601 300 601 257.2 601C214.3 601 171.7 601 128.8 601C86 601 43 601 21.5 601L0 601Z" fill="#0066FF" stroke-linecap="round" stroke-linejoin="miter"></path></svg>